<?xml version="1.0" encoding="UTF-8"?>
<svg width="1200pt" height="1200pt" version="1.1" viewBox="0 0 1200 1200" xmlns="http://www.w3.org/2000/svg">
 <path d="m1090.9 372.23c29.285 16.441 49.074 47.793 49.074 83.77 0 26.871-11.039 51.16-28.828 68.586l-69.969 75.348 72.277 77.805-0.007813 0.007813c16.434 17.227 26.527 40.562 26.527 66.254 0 37.516-21.52 70.004-52.887 85.797l0.003907 0.007813-428.32 290.2-0.042969-0.070312c-16.238 12.582-36.621 20.07-58.75 20.07-22.363 0-42.941-7.6484-59.262-20.469l-425.32-288.5c-32.734-15.293-55.418-48.512-55.418-87.027 0-27.816 11.828-52.867 30.73-70.398l68.219-73.504-70.121-75.512c-17.789-17.426-28.828-41.715-28.828-68.586 0-36.52 20.391-68.277 50.41-84.508l432.98-293.03c1.8867-1.3789 3.8281-2.6914 5.8164-3.9375l0.41406-0.27734 0.011718 0.015625c14.645-9.043 31.898-14.262 50.371-14.262s35.727 5.2188 50.367 14.258l0.007812-0.011718 0.3125 0.21094c2.0508 1.2773 4.0469 2.6289 5.9883 4.0508zm-75.805-7.8125-319.42-216.05c0.19922 2.5156 0.30078 5.0625 0.30078 7.6328 0 20.129-6.1953 38.809-16.781 54.242l211.57 227.76h58.898c6.6172-34.879 32.102-63.078 65.438-73.582zm-379.28-256.54-4.6055-3.1133c-9.0977-5.5586-19.793-8.7617-31.234-8.7617-11.477 0-22.203 3.2227-31.32 8.8125l-4.4688 3.0234c-14.691 10.938-24.211 28.438-24.211 48.164 0 33.137 26.863 60 60 60s60-26.863 60-60c0-19.699-9.4961-37.184-24.16-48.125zm378.8 727.55c-33.098-10.621-58.367-38.715-64.953-73.426h-58.973l-211.49 227.76c10.586 15.43 16.781 34.113 16.781 54.242 0 2.5234-0.097656 5.0273-0.28906 7.5039zm-64.953-109.43c2.2539-11.867 6.6875-22.957 12.871-32.844l-5.3438-2.7695-33.07 35.613zm-255.37 0h180.7l49.039-52.809-102.05-52.914-140.55 72.879c6.1836 9.8867 10.617 20.977 12.871 32.844zm0 36c-8.4258 44.414-47.449 78-94.316 78s-85.891-33.586-94.316-78h-147.27l187.93 202.38c15.316-10.344 33.777-16.383 53.652-16.383s38.336 6.0391 53.652 16.383l187.93-202.38zm322.32-188.52 20.195-21.746c-18.07-1.3359-34.746-7.6719-48.656-17.629l-5.4766 2.8398zm-24.562 26.453-42.535-45.793-88.438 45.855 88.367 45.82zm-67.848-125.94 33.051 35.582 5.2773-2.7383c-6.1836-9.8867-10.617-20.977-12.871-32.844zm-49.137 0h-180.77c-2.2539 11.867-6.6875 22.957-12.871 32.844l140.55 72.879 102.11-52.945zm-33.441-36-187.99-202.38c-15.32 10.344-33.781 16.383-53.656 16.383-19.871 0-38.336-6.0391-53.652-16.379l-187.83 202.38h147.17c8.4258-44.414 47.449-78 94.316-78s85.891 33.586 94.316 78zm195.31 210.25-20.316-21.867-34.012 36.625 5.5469 2.8789c13.941-9.9805 30.664-16.324 48.781-17.637zm-381.13 17.637 127.07-65.891-127.07-65.891c-15.73 11.262-35.004 17.891-55.824 17.891s-40.094-6.6289-55.824-17.891l-127.07 65.891 127.07 65.891c15.73-11.262 35.004-17.891 55.824-17.891s40.094 6.6289 55.824 17.891zm-470.8-301.43c33.262 10.539 58.68 38.707 65.289 73.535h59.082l211.39-227.75c-10.59-15.434-16.785-34.117-16.785-54.246 0-2.5625 0.10156-5.1016 0.29688-7.6133zm0.79297 470.81 318.45 216.02c-0.17969-2.4062-0.27344-4.8398-0.27344-7.293 0-20.129 6.1953-38.812 16.781-54.242l-211.49-227.76h-58.973c-6.5547 34.551-31.625 62.547-64.496 73.277zm319.86-109.28c2.2539-11.867 6.6875-22.957 12.871-32.844l-140.55-72.879-102.05 52.914 49.039 52.809zm-229.82 0-33.07-35.613-5.3438 2.7695c6.1836 9.8867 10.617 20.977 12.871 32.844zm-25.227-171.77-42.562 45.859 42.461 45.727 88.367-45.82zm-33.156-17.191-5.6523-2.9336c-13.91 9.957-30.586 16.293-48.656 17.629l20.34 21.902zm-33.961 89.508-20.164 21.727c17.996 1.3633 34.609 7.6875 48.473 17.613l5.5469-2.8789zm92.527-99.691 101.96 52.863 140.55-72.879c-6.1836-9.8867-10.617-20.977-12.871-32.844h-180.58zm-33.16-17.195 33.102-35.664h-25.668c-2.2539 11.867-6.6875 22.957-12.871 32.844zm-129.8 192.4c-10.57 10.816-17.086 25.613-17.086 41.934 0 33.137 26.863 60 60 60s60-26.863 60-60-26.863-60-60-60c-15.324 0-29.305 5.7422-39.906 15.195l-2.8242 3.043zm486.91-186.07c33.137 0 60-26.863 60-60s-26.863-60-60-60-60 26.863-60 60 26.863 60 60 60zm0 288c33.137 0 60-26.863 60-60s-26.863-60-60-60-60 26.863-60 60 26.863 60 60 60zm444-288c33.137 0 60-26.863 60-60s-26.863-60-60-60-60 26.863-60 60 26.863 60 60 60zm0 288c33.137 0 60-26.863 60-60s-26.863-60-60-60-60 26.863-60 60 26.863 60 60 60zm-888-288c33.137 0 60-26.863 60-60s-26.863-60-60-60-60 26.863-60 60 26.863 60 60 60zm444 588c33.137 0 60-26.863 60-60s-26.863-60-60-60-60 26.863-60 60 26.863 60 60 60z"/>
</svg>
